<svg width="121" height="121" viewBox="0 0 121 121" fill="none" xmlns="http://www.w3.org/2000/svg">
<path fill-rule="evenodd" clip-rule="evenodd" d="M28.7457 5.0297L19.0863 14.689C18.427 15.3484 18.0566 16.2426 18.0566 17.175V54.1063C18.0566 55.0387 18.427 55.9329 19.0863 56.5922L28.7457 66.2515C29.405 66.9109 30.2992 67.2812 31.2316 67.2812H51.7566C52.689 67.2812 53.5832 66.9109 54.2425 66.2515L62.9311 57.563C63.6693 56.8248 64.9316 57.3476 64.9316 58.3917V77.3594C64.9316 78.2655 64.197 79 63.2909 79H19.6973C18.7912 79 18.0566 79.7345 18.0566 80.6406V84.575C18.0566 85.5074 18.427 86.4016 19.0863 87.061L26.4019 94.3765C27.0612 95.0359 27.9554 95.4062 28.8878 95.4062H72.8503C73.7827 95.4062 74.6769 95.0359 75.3363 94.3765L80.3081 89.4047C80.9674 88.7454 81.3378 87.8512 81.3378 86.9188V5.64063C81.3378 4.73453 80.6033 4 79.6972 4H75.7628C74.8304 4 73.9362 4.3704 73.2769 5.0297L68.2697 10.0369C67.7205 10.5861 66.8301 10.5861 66.2809 10.0369L61.2738 5.0297C60.6145 4.3704 59.7203 4 58.7879 4H31.2316C30.2992 4 29.405 4.3704 28.7457 5.0297ZM36.1035 20.4062C35.1974 20.4062 34.4629 21.1408 34.4629 22.0469V49.2344C34.4629 50.1405 35.1974 50.875 36.1035 50.875H63.2909C64.197 50.875 64.9316 50.1405 64.9316 49.2344V22.0469C64.9316 21.1408 64.197 20.4062 63.2909 20.4062H36.1035Z" fill="#00FFE0"/>
<path d="M47.4951 115.47L42.2733 110.248C41.7744 109.749 41.4941 109.072 41.4941 108.367C41.4941 107.681 42.05 107.125 42.7358 107.125H80.3664C80.988 107.125 81.5842 106.878 82.0237 106.439L92.3695 96.0927C92.809 95.6532 93.056 95.057 93.056 94.4354V27.0354C93.056 25.7922 93.5498 24.5999 94.4289 23.7208L96.7137 21.436C97.3731 20.7766 98.2673 20.4062 99.1997 20.4062H100.79C101.696 20.4062 102.431 21.1408 102.431 22.0469V100.981C102.431 101.914 102.061 102.808 101.401 103.467L89.3982 115.47C88.7389 116.13 87.8446 116.5 86.9122 116.5H49.9811C49.0486 116.5 48.1544 116.13 47.4951 115.47Z" fill="#00FFE0"/>
</svg>
